<?xml version="1.0" encoding="UTF-8"?>
<!-- Generated by Pixelmator Pro 3.6.6 -->
<svg width="660" height="660" viewBox="0 0 660 660" xmlns="http://www.w3.org/2000/svg">
    <g id="oi">
        <path id="Path" fill="#ffffff" stroke="none" d="M 318.06662 -0.049805 C 356.945129 -1.918335 396.158722 5.504272 431.673889 21.431946 C 466.222565 36.766907 496.931061 60.143005 521.234985 89.060303 C 540.178101 111.585876 555.074951 137.539246 564.984558 165.258087 C 577.935547 201.172699 582.394226 240.05127 578.051514 277.989075 C 572.561829 327.060822 552.085266 374.186737 520.023682 411.737915 C 505.449036 428.567688 489.005859 443.709351 470.539551 456.19632 C 431.467682 482.935791 384.715515 498.180542 337.396332 499.5336 C 291.455994 501.041321 245.232162 489.507935 205.387131 466.582825 C 167.848801 445.13974 136.006287 413.632263 114.137909 376.351654 C 90.310791 335.952484 78.249039 288.800842 79.795418 241.932709 C 81.096954 196.533569 95.168999 151.637085 119.949715 113.570374 C 133.235687 92.939087 149.743286 74.562988 168.39003 58.648193 C 210.052048 23.287659 263.479431 2.321289 318.06662 -0.049805 Z"/>
        <path id="path1" fill="#443789" stroke="none" d="M 314.85788 131.998047 C 340.0896 128.505798 366.03009 132.242859 388.620148 144.240234 C 423.310577 161.778748 447.885071 196.958832 452.691772 235.502319 C 455.900482 260.025299 451.802582 285.398834 440.230499 307.318726 C 428.658447 329.973175 409.753937 348.632782 386.906219 359.818298 C 366.725983 370.204803 343.143707 374.083618 320.64389 371.8414 C 293.865784 369.444519 268.724243 357.48584 249.201202 339.135468 C 231.752899 322.279968 219.472061 300.256958 214.497879 276.494263 C 210.876785 258.131012 211.173172 238.8013 215.954071 220.682861 C 221.160202 200.605682 231.714249 182.268219 245.96669 167.255463 C 264.407257 148.492737 288.762726 135.760864 314.85788 131.998047 Z"/>
        <path id="path2" fill="#ffffff" stroke="none" d="M 122.191971 550.035767 C 260.051605 549.894043 397.975708 550.01001 535.848267 549.958435 C 538.67041 550.125977 542.123962 549.610535 544.456421 551.440369 C 547.046631 553.115662 548.902283 555.667114 548.734741 558.875916 C 548.760498 590.795715 548.670349 622.741333 548.773438 654.661194 C 546.544006 658.25647 544.224487 660.39563 539.73999 660.30542 C 416.880188 660.331177 294.020416 660.30542 171.160629 660.318298 C 158.699387 660.215271 146.251038 660.627563 133.78981 660.498718 C 126.173889 660.369873 118.158493 660.93689 110.645676 659.519348 C 108.609604 657.934326 107.810646 655.614807 108.003944 653.063232 C 108.068375 620.151123 107.978172 587.290588 108.029716 554.378479 C 109.395683 553.051208 110.76165 551.195557 112.552872 550.422363 C 115.671402 549.816711 119.021896 550.08728 122.191971 550.035767 Z"/>
    </g>
</svg>
